<?xml version="1.0" encoding="utf-8"?>
<!-- Generator: Adobe Illustrator 24.0.1, SVG Export Plug-In . SVG Version: 6.00 Build 0)  -->
<svg version="1.1" id="Layer_2" xmlns="http://www.w3.org/2000/svg" xmlns:xlink="http://www.w3.org/1999/xlink" x="0px" y="0px"
	 viewBox="0 0 3001 1039.989" enable-background="new 0 0 3001 1039.989" xml:space="preserve">
<g>
	<g>
		<rect x="905.78" y="254.195" fill="#009DD7" width="119.58" height="401.59"/>
		<path fill="#009DD7" d="M1512.09,549.505l-69.87-295.31c-32.11,0-65,0-98.7,0l-72.31,298.01l-57.12-298.01
			c-41.22,0-83.53,0-126.98,0l117.8,401.59c40.45,0,79.99,0,118.65,0l53.02-199.28l12.3-65.98l13.28,67.68l50.22,197.58
			c40.28,0,79.53,0,117.75,0l125.24-401.59c-39.94,0-81.37,0-124.37,0L1512.09,549.505z"/>
		<path fill="#009DD7" d="M1977.42,254.195c-13.12-3.77-27.66-6.32-43.75-7.41c-23.6,0-48.87,0.81-74.35,7.41
			c-37.15,9.6-74.76,31.49-108.38,81.04c-56.69,83.53-35.82,204.37,4.17,255.97c17.74,22.89,48.75,50.05,97.9,64.58
			c41.21,12.2,95.18,15.51,164.79,0c18.2-4.05,37.47-9.39,57.87-16.2c-17.34-83.33-17.34-83.33-17.34-83.33
			s-195.53,63.07-224.74-59.11c259.41,0,259.41,0,259.41,0S2126.91,297.005,1977.42,254.195z M1982.12,410.015h-148.03v-7.17
			c6.389-44.992,33.14-74.02,74.01-74.02c20.44,0,38.94,8.29,52.34,21.68c13.4,13.39,21.68,31.9,21.68,52.34V410.015z"/>
		<path fill="#009DD7" d="M2412.04,254.195c-13.12-3.77-27.66-6.32-43.75-7.41c-23.6,0-48.87,0.81-74.35,7.41
			c-37.15,9.6-74.76,31.49-108.38,81.04c-56.69,83.53-35.82,204.37,4.17,255.97c17.74,22.89,48.75,50.05,97.9,64.58
			c41.21,12.2,95.18,15.51,164.79,0c18.2-4.05,37.47-9.39,57.87-16.2c-17.34-83.33-17.34-83.33-17.34-83.33
			s-195.52,63.07-224.73-59.11c259.4,0,259.4,0,259.4,0S2561.53,297.005,2412.04,254.195z M2416.74,410.015h-148.03v-7.17
			c4.165-41.678,33.14-74.02,74.01-74.02h0.01c40.87,0,74.01,33.14,74.01,74.02V410.015z"/>
		<path fill="#009DD7" d="M2894.96,254.195c-20.14-6.48-39.44-7.41-53.05-7.41c-36.4,0-79.03,14.94-111.27,49.98
			c-4.02,4.37-7.88,9.05-11.55,14.06l-7.38-56.63c-22.41,0-55.82,0-105.6,0v401.59c46.75,0,88.05,0,124.53,0v-158.64v-83.7
			c0-36.68,29.73-66.41,66.4-66.41c18.34,0,34.94,7.43,46.96,19.45s19.45,28.62,19.45,46.96v83.7v158.64c68.86,0,104.73,0,123.41,0
			v-257.84C2979.22,302.635,2935.41,267.215,2894.96,254.195z"/>
	</g>
	<g>
		<path fill="#009DD7" d="M1079.705,713.682v25.093h22.746v12.096h-22.746v47.117c0,10.831,3.069,16.97,11.915,16.97
			c4.152,0,7.221-0.542,9.207-1.083l0.722,11.914c-3.069,1.264-7.943,2.167-14.081,2.167c-7.402,0-13.359-2.348-17.15-6.68
			c-4.513-4.694-6.138-12.457-6.138-22.746v-47.659h-13.54v-12.096h13.54v-20.941L1079.705,713.682z"/>
		<path fill="#009DD7" d="M1121.585,766.035c0-10.29-0.18-19.136-0.722-27.26h13.9l0.542,17.15h0.722
			c3.972-11.734,13.54-19.136,24.19-19.136c1.805,0,3.069,0.18,4.513,0.541v14.984c-1.625-0.361-3.25-0.542-5.416-0.542
			c-11.193,0-19.136,8.484-21.302,20.399c-0.361,2.166-0.722,4.693-0.722,7.401v46.576h-15.706V766.035z"/>
		<path fill="#009DD7" d="M1229.36,826.15l-1.264-11.012h-0.542c-4.874,6.859-14.262,12.997-26.718,12.997
			c-17.692,0-26.718-12.456-26.718-25.093c0-21.122,18.775-32.676,52.533-32.495v-1.805c0-7.222-1.986-20.22-19.858-20.22
			c-8.124,0-16.608,2.528-22.746,6.499l-3.611-10.47c7.221-4.694,17.692-7.763,28.704-7.763c26.718,0,33.217,18.232,33.217,35.744
			v32.675c0,7.582,0.361,14.984,1.444,20.941H1229.36z M1227.014,781.56c-17.331-0.361-37.008,2.708-37.008,19.677
			c0,10.29,6.86,15.165,14.984,15.165c11.373,0,18.594-7.222,21.122-14.623c0.542-1.625,0.903-3.43,0.903-5.055V781.56z"/>
		<path fill="#009DD7" d="M1273.95,738.775l17.15,49.104c2.889,7.943,5.235,15.164,7.041,22.385h0.542
			c1.986-7.221,4.513-14.441,7.402-22.385l16.969-49.104h16.609l-34.3,87.375h-15.164l-33.217-87.375H1273.95z"/>
		<path fill="#009DD7" d="M1362.948,785.351c0.361,21.482,14.081,30.328,29.967,30.328c11.373,0,18.233-1.985,24.19-4.513
			l2.708,11.373c-5.596,2.527-15.164,5.416-29.065,5.416c-26.898,0-42.965-17.692-42.965-44.049
			c0-26.357,15.525-47.117,40.979-47.117c28.523,0,36.105,25.093,36.105,41.16c0,3.249-0.361,5.776-0.542,7.401H1362.948z
			 M1409.524,773.978c0.181-10.109-4.152-25.815-22.024-25.815c-16.067,0-23.107,14.803-24.371,25.815H1409.524z"/>
		<path fill="#009DD7" d="M1445.808,697.976h15.887V826.15h-15.887V697.976z"/>
		<path fill="#009DD7" d="M1548.343,713.682v25.093h22.746v12.096h-22.746v47.117c0,10.831,3.068,16.97,11.915,16.97
			c4.151,0,7.221-0.542,9.206-1.083l0.723,11.914c-3.069,1.264-7.943,2.167-14.081,2.167c-7.401,0-13.359-2.348-17.15-6.68
			c-4.513-4.694-6.138-12.457-6.138-22.746v-47.659h-13.54v-12.096h13.54v-20.941L1548.343,713.682z"/>
		<path fill="#009DD7" d="M1597.987,785.351c0.361,21.482,14.081,30.328,29.967,30.328c11.374,0,18.233-1.985,24.191-4.513
			l2.708,11.373c-5.597,2.527-15.165,5.416-29.065,5.416c-26.898,0-42.965-17.692-42.965-44.049
			c0-26.357,15.525-47.117,40.979-47.117c28.523,0,36.105,25.093,36.105,41.16c0,3.249-0.361,5.776-0.542,7.401H1597.987z
			 M1644.563,773.978c0.18-10.109-4.152-25.815-22.024-25.815c-16.067,0-23.107,14.803-24.371,25.815H1644.563z"/>
		<path fill="#009DD7" d="M1743.129,822.901c-4.152,2.166-13.358,5.055-25.093,5.055c-26.357,0-43.507-17.872-43.507-44.591
			c0-26.898,18.413-46.396,46.937-46.396c9.388,0,17.691,2.348,22.024,4.514l-3.61,12.275c-3.791-2.166-9.749-4.151-18.414-4.151
			c-20.038,0-30.87,14.803-30.87,33.036c0,20.219,12.998,32.675,30.329,32.675c9.025,0,14.983-2.347,19.496-4.332L1743.129,822.901z
			"/>
		<path fill="#009DD7" d="M1762.986,697.976h15.886v54.519h0.361c2.527-4.513,6.499-8.484,11.373-11.192
			c4.694-2.708,10.29-4.513,16.248-4.513c11.733,0,30.509,7.221,30.509,37.369v51.991h-15.887v-50.187
			c0-14.081-5.235-25.996-20.219-25.996c-10.29,0-18.414,7.222-21.302,15.887c-0.903,2.166-1.084,4.513-1.084,7.582v52.714h-15.886
			V697.976z"/>
		<path fill="#009DD7" d="M1864.44,762.424c0-9.026-0.181-16.429-0.723-23.649h14.081l0.903,14.442h0.36
			c4.333-8.305,14.442-16.428,28.885-16.428c12.095,0,30.87,7.221,30.87,37.188v52.172h-15.887v-50.367
			c0-14.081-5.235-25.815-20.219-25.815c-10.471,0-18.595,7.402-21.302,16.248c-0.723,1.985-1.084,4.693-1.084,7.401v52.533h-15.886
			V762.424z"/>
		<path fill="#009DD7" d="M2044.965,781.741c0,32.313-22.385,46.395-43.507,46.395c-23.649,0-41.882-17.33-41.882-44.951
			c0-29.245,19.136-46.395,43.326-46.395C2027.995,736.79,2044.965,755.022,2044.965,781.741z M1975.643,782.643
			c0,19.136,11.013,33.578,26.537,33.578c15.165,0,26.538-14.262,26.538-33.939c0-14.803-7.401-33.578-26.177-33.578
			C1983.767,748.704,1975.643,766.035,1975.643,782.643z"/>
		<path fill="#009DD7" d="M2066.267,697.976h15.886V826.15h-15.886V697.976z"/>
		<path fill="#009DD7" d="M2189.203,781.741c0,32.313-22.385,46.395-43.507,46.395c-23.649,0-41.882-17.33-41.882-44.951
			c0-29.245,19.136-46.395,43.326-46.395C2172.233,736.79,2189.203,755.022,2189.203,781.741z M2119.881,782.643
			c0,19.136,11.013,33.578,26.537,33.578c15.165,0,26.538-14.262,26.538-33.939c0-14.803-7.401-33.578-26.177-33.578
			C2128.005,748.704,2119.881,766.035,2119.881,782.643z"/>
		<path fill="#009DD7" d="M2285.783,738.775c-0.361,6.318-0.722,13.359-0.722,24.01v50.729c0,20.038-3.972,32.314-12.457,39.896
			c-8.484,7.943-20.76,10.471-31.772,10.471c-10.471,0-22.024-2.527-29.064-7.222l3.972-12.095
			c5.776,3.61,14.803,6.859,25.635,6.859c16.247,0,28.162-8.484,28.162-30.509v-9.748h-0.361
			c-4.874,8.123-14.262,14.622-27.801,14.622c-21.663,0-37.188-18.413-37.188-42.604c0-29.605,19.316-46.395,39.354-46.395
			c15.164,0,23.469,7.942,27.26,15.164h0.36l0.723-13.179H2285.783z M2269.355,773.255c0-2.708-0.181-5.055-0.902-7.221
			c-2.889-9.207-10.651-16.789-22.205-16.789c-15.164,0-25.996,12.817-25.996,33.036c0,17.15,8.665,31.412,25.815,31.412
			c9.748,0,18.595-6.139,22.024-16.248c0.902-2.708,1.264-5.776,1.264-8.484V773.255z"/>
		<path fill="#009DD7" d="M2318.456,738.775l19.136,51.631c1.986,5.776,4.152,12.637,5.597,17.872h0.361
			c1.624-5.235,3.43-11.915,5.596-18.233l17.331-51.27h16.789l-23.83,62.282c-11.373,29.967-19.136,45.312-29.967,54.699
			c-7.763,6.86-15.525,9.567-19.497,10.29L2306,852.687c3.972-1.264,9.207-3.791,13.9-7.763c4.333-3.43,9.749-9.567,13.359-17.691
			c0.722-1.625,1.264-2.889,1.264-3.791s-0.361-2.166-1.083-4.152l-32.314-80.515H2318.456z"/>
		<path fill="#009DD7" d="M2447.35,785.351c0.361,21.482,14.081,30.328,29.968,30.328c11.373,0,18.232-1.985,24.19-4.513
			l2.708,11.373c-5.597,2.527-15.165,5.416-29.065,5.416c-26.898,0-42.965-17.692-42.965-44.049
			c0-26.357,15.525-47.117,40.979-47.117c28.523,0,36.105,25.093,36.105,41.16c0,3.249-0.361,5.776-0.542,7.401H2447.35z
			 M2493.926,773.978c0.18-10.109-4.152-25.815-22.024-25.815c-16.067,0-23.107,14.803-24.371,25.815H2493.926z"/>
		<path fill="#009DD7" d="M2537.071,738.775l12.456,18.774c3.25,4.875,5.958,9.388,8.846,14.262h0.542
			c2.889-5.235,5.776-9.748,8.665-14.441l12.276-18.595h17.149l-29.787,42.243l30.69,45.132h-18.053l-12.817-19.678
			c-3.431-5.055-6.318-9.929-9.388-15.164h-0.361c-2.889,5.235-5.957,9.929-9.207,15.164l-12.637,19.678h-17.511l31.051-44.59
			l-29.606-42.785H2537.071z"/>
		<path fill="#009DD7" d="M2614.517,767.298c0-11.192-0.361-20.219-0.723-28.523h14.262l0.723,14.983h0.36
			c6.499-10.65,16.789-16.969,31.051-16.969c21.122,0,37.008,17.872,37.008,44.409c0,31.412-19.136,46.937-39.716,46.937
			c-11.554,0-21.663-5.055-26.898-13.72h-0.361v47.479h-15.705V767.298z M2630.222,790.586c0,2.347,0.361,4.513,0.723,6.499
			c2.889,11.012,12.456,18.594,23.829,18.594c16.789,0,26.538-13.72,26.538-33.759c0-17.511-9.207-32.494-25.996-32.494
			c-10.832,0-20.941,7.763-24.01,19.677c-0.542,1.986-1.084,4.333-1.084,6.499V790.586z"/>
		<path fill="#009DD7" d="M2727.342,785.351c0.361,21.482,14.081,30.328,29.968,30.328c11.373,0,18.232-1.985,24.19-4.513
			l2.708,11.373c-5.597,2.527-15.165,5.416-29.065,5.416c-26.898,0-42.965-17.692-42.965-44.049
			c0-26.357,15.525-47.117,40.979-47.117c28.523,0,36.105,25.093,36.105,41.16c0,3.249-0.361,5.776-0.542,7.401H2727.342z
			 M2773.918,773.978c0.18-10.109-4.152-25.815-22.024-25.815c-16.067,0-23.107,14.803-24.371,25.815H2773.918z"/>
		<path fill="#009DD7" d="M2810.202,766.035c0-10.29-0.181-19.136-0.723-27.26h13.9l0.542,17.15h0.722
			c3.972-11.734,13.54-19.136,24.191-19.136c1.805,0,3.068,0.18,4.513,0.541v14.984c-1.625-0.361-3.249-0.542-5.416-0.542
			c-11.192,0-19.136,8.484-21.302,20.399c-0.361,2.166-0.723,4.693-0.723,7.401v46.576h-15.705V766.035z"/>
		<path fill="#009DD7" d="M2893.963,713.682v25.093h22.746v12.096h-22.746v47.117c0,10.831,3.068,16.97,11.915,16.97
			c4.151,0,7.221-0.542,9.206-1.083l0.723,11.914c-3.069,1.264-7.943,2.167-14.081,2.167c-7.401,0-13.359-2.348-17.15-6.68
			c-4.513-4.694-6.138-12.457-6.138-22.746v-47.659h-13.54v-12.096h13.54v-20.941L2893.963,713.682z"/>
		<path fill="#009DD7" d="M2933.677,809.903c4.694,3.068,12.998,6.318,20.941,6.318c11.554,0,16.97-5.777,16.97-12.998
			c0-7.582-4.514-11.734-16.247-16.067c-15.706-5.596-23.107-14.262-23.107-24.731c0-14.081,11.373-25.635,30.147-25.635
			c8.846,0,16.608,2.527,21.482,5.415l-3.972,11.554c-3.43-2.166-9.748-5.055-17.872-5.055c-9.387,0-14.622,5.416-14.622,11.915
			c0,7.221,5.235,10.471,16.608,14.804c15.164,5.776,22.927,13.358,22.927,26.356c0,15.345-11.915,26.177-32.676,26.177
			c-9.567,0-18.413-2.348-24.551-5.958L2933.677,809.903z"/>
	</g>
	<polygon fill="#007DC5" points="360.245,445.131 296.604,519.995 504.499,715.607 797.248,426.039 721.94,362.398 505.559,587.264 
			"/>
	<g>
		<path fill="#44C8F5" d="M637.462,89.099c-2.735,0-5.513-0.332-8.287-1.027c-35.285-8.838-71.81-13.319-108.558-13.319
			c-11.01,0-22.13,0.406-33.052,1.207c-18.722,1.38-35.022-12.695-36.396-31.423c-1.373-18.728,12.695-35.022,31.423-36.396
			c12.569-0.921,25.362-1.389,38.024-1.389c42.313,0,84.396,5.167,125.08,15.357c18.215,4.562,29.282,23.027,24.72,41.242
			C666.55,78.793,652.69,89.098,637.462,89.099z"/>
	</g>
	<g>
		<path fill="#53B7E8" d="M224.668,177.044c-10.072,0-20.042-4.455-26.75-12.987c-11.606-14.761-9.049-36.136,5.712-47.742
			c50.685-39.852,107.557-69.428,169.037-87.908c17.982-5.401,36.943,4.791,42.348,22.774s-4.791,36.943-22.774,42.348
			c-53.296,16.02-102.613,41.671-146.581,76.241C239.431,174.668,232.022,177.044,224.668,177.044z"/>
	</g>
	<path fill="none" stroke="#007DC5" stroke-width="68" stroke-linecap="round" stroke-linejoin="round" stroke-miterlimit="10" d="
		M146.44,220.527c1.393-1.738,2.798-3.467,4.215-5.185"/>
	<g>
		<path fill="#007DC5" d="M52.773,449.777c-2.438,0-4.914-0.264-7.393-0.814c-18.333-4.065-29.898-22.223-25.832-40.555
			c16.832-75.896,51.536-148.217,100.361-209.143c11.743-14.653,33.141-17.012,47.793-5.27c14.653,11.743,17.013,33.141,5.27,47.793
			c-42.351,52.847-72.447,115.554-87.038,181.342C82.419,438.984,68.365,449.777,52.773,449.777z"/>
	</g>
	<g>
		<path fill="#005F8E" d="M520.618,1033.237c-69.272,0-136.491-13.574-199.788-40.347
			c-61.121-25.853-116.005-62.854-163.129-109.979c-47.125-47.124-84.126-102.009-109.979-163.13
			C20.95,656.485,7.375,589.267,7.375,519.995c0-18.778,15.222-34,34-34s34,15.222,34,34c0,245.507,199.735,445.242,445.243,445.242
			c161.61,0,310.836-87.844,389.443-229.252c9.124-16.411,29.826-22.322,46.237-13.197c16.412,9.123,22.321,29.824,13.198,46.236
			c-43.734,78.673-107.652,144.779-184.845,191.173C705.146,1007.98,613.845,1033.237,520.618,1033.237z"/>
	</g>
</g>
</svg>
